<svg xmlns="http://www.w3.org/2000/svg" width="111.862" height="129.804" viewBox="0 0 111.862 129.804">
  <g id="Grupo_18" data-name="Grupo 18" transform="translate(-53.94 -54.311)">
    <g id="Grupo_17" data-name="Grupo 17">
      <g id="Grupo_15" data-name="Grupo 15">
        <path id="Trazado_27" data-name="Trazado 27" d="M53.94,85.672v63.006l53.333-31.5-.087-40.119L73.461,97.088l.174,17.516,19.15-11.394.022,4.967L69.474,122.229l-.283-27.451,38.082-22.832V54.311Z" fill="#FFF"/>
      </g>
      <g id="Grupo_16" data-name="Grupo 16">
        <path id="Trazado_28" data-name="Trazado 28" d="M165.8,85.672v63.006l-53.333-31.5.087-40.119,33.725,20.032-.174,17.516-19.15-11.394-.022,4.967,23.333,14.052.283-27.451L112.469,71.947V54.311Z" fill="#FFF"/>
      </g>
      <path id="Trazado_29" data-name="Trazado 29" d="M147.687,161.762l15.185-8.969-53-31.309-14.738,8.706-.013-.008-4.11,2.44-.047-.027-15.185,8.97,37.835,22.35-3.691,2.192-37.7-22.27-15.185,8.969,53,31.309,15.185-8.969-.118-.069,3.811-2.263-.019-.011,15.064-8.9-37.77-22.312,3.665-2.176Z" fill="#FFF"/>
    </g>
  </g>
</svg>
